HIERARCHY
ROOT Hips
{
	OFFSET 0.000000 0.000000 0.000000
	CHANNELS 6 Xposition Yposition Zposition Xrotation Yrotation Zrotation
	JOINT LeftUpLeg_virtual
	{
		OFFSET 0.000000 0.000000 0.000000
		CHANNELS 3 Xrotation Yrotation Zrotation
		JOINT LeftUpLeg
		{
			OFFSET 15.427100 -6.655098 0.678600
			CHANNELS 3 Xrotation Yrotation Zrotation
			JOINT LeftLeg
			{
				OFFSET 4.081073 -39.591068 13.024000
				CHANNELS 3 Xrotation Yrotation Zrotation
				JOINT LeftFoot
				{
					OFFSET -4.081074 -37.707932 -15.979700
					CHANNELS 3 Xrotation Yrotation Zrotation
					JOINT LeftToeBase
					{
						OFFSET 5.346399 -15.068900 20.645000
						CHANNELS 3 Xrotation Yrotation Zrotation
						JOINT LeftToe_End
						{
							OFFSET 2.754700 0.931300 11.300900
							CHANNELS 3 Xrotation Yrotation Zrotation
							End Site
							{
								OFFSET 0 0 0
							}
						}
					}
				}
			}
		}
	}
	JOINT RightUpLeg_virtual
	{
		OFFSET 0.000000 0.000000 0.000000
		CHANNELS 3 Xrotation Yrotation Zrotation
		JOINT RightUpLeg
		{
			OFFSET -15.569500 -6.655098 0.678600
			CHANNELS 3 Xrotation Yrotation Zrotation
			JOINT RightLeg
			{
				OFFSET -4.081825 -39.591045 13.023800
				CHANNELS 3 Xrotation Yrotation Zrotation
				JOINT RightFoot
				{
					OFFSET 4.081824 -37.707954 -15.979600
					CHANNELS 3 Xrotation Yrotation Zrotation
					JOINT RightToeBase
					{
						OFFSET -5.346400 -15.068900 20.645000
						CHANNELS 3 Xrotation Yrotation Zrotation
						JOINT RightToe_End
						{
							OFFSET -2.754700 0.931300 11.300900
							CHANNELS 3 Xrotation Yrotation Zrotation
							End Site
							{
								OFFSET 0 0 0
							}
						}
					}
				}
			}
		}
	}
	JOINT Spine_virtual
	{
		OFFSET 0.000000 0.000000 0.000000
		CHANNELS 3 Xrotation Yrotation Zrotation
		JOINT Spine
		{
			OFFSET -0.279200 12.230698 -2.892100
			CHANNELS 3 Xrotation Yrotation Zrotation
			JOINT Spine1
			{
				OFFSET -0.232667 10.192268 -1.242267
				CHANNELS 3 Xrotation Yrotation Zrotation
				JOINT Spine1_split
				{
					OFFSET -0.232667 10.192268 -1.242267
					CHANNELS 3 Xrotation Yrotation Zrotation
					JOINT Spine2
					{
						OFFSET -0.232667 10.192268 -1.242267
						CHANNELS 3 Xrotation Yrotation Zrotation
						JOINT Neck_virtual
						{
							OFFSET 0.000000 0.000000 0.000000
							CHANNELS 3 Xrotation Yrotation Zrotation
							JOINT Neck
							{
								OFFSET -0.418800 17.814194 8.416900
								CHANNELS 3 Xrotation Yrotation Zrotation
								JOINT Head
								{
									OFFSET 0.000000 7.031097 3.806800
									CHANNELS 3 Xrotation Yrotation Zrotation
									JOINT HeadTop_End
									{
										OFFSET 0.000000 24.646606 12.978600
										CHANNELS 3 Xrotation Yrotation Zrotation
										End Site
										{
											OFFSET 0 0 0
										}
									}
								}
							}
						}
						JOINT LeftShoulder_virtual
						{
							OFFSET 0.000000 0.000000 0.000000
							CHANNELS 3 Xrotation Yrotation Zrotation
							JOINT LeftShoulder
							{
								OFFSET 8.476499 7.247704 -3.868750
								CHANNELS 3 Xrotation Yrotation Zrotation
								JOINT LeftShoulder_split
								{
									OFFSET 8.476499 7.247704 -3.868750
									CHANNELS 3 Xrotation Yrotation Zrotation
									JOINT LeftArm
									{
										OFFSET 9.308998 -2.777710 0.208600
										CHANNELS 3 Xrotation Yrotation Zrotation
										JOINT LeftForeArm
										{
											OFFSET 29.972298 0.000000 0.000000
											CHANNELS 3 Xrotation Yrotation Zrotation
											JOINT LeftHand
											{
												OFFSET 26.026505 0.000000 0.000000
												CHANNELS 3 Xrotation Yrotation Zrotation
												End Site
												{
													OFFSET 0 0 0
												}
											}
										}
									}
								}
							}
						}
						JOINT RightShoulder_virtual
						{
							OFFSET 0.000000 0.000000 0.000000
							CHANNELS 3 Xrotation Yrotation Zrotation
							JOINT RightShoulder
							{
								OFFSET -7.570500 7.247704 -3.868750
								CHANNELS 3 Xrotation Yrotation Zrotation
								JOINT RightShoulder_split
								{
									OFFSET -7.570500 7.247704 -3.868750
									CHANNELS 3 Xrotation Yrotation Zrotation
									JOINT RightArm
									{
										OFFSET -9.308998 -2.777710 0.208500
										CHANNELS 3 Xrotation Yrotation Zrotation
										JOINT RightForeArm
										{
											OFFSET -29.972300 0.000000 0.000000
											CHANNELS 3 Xrotation Yrotation Zrotation
											JOINT RightHand
											{
												OFFSET -26.026505 0.000000 0.000000
												CHANNELS 3 Xrotation Yrotation Zrotation
												End Site
												{
													OFFSET 0 0 0
												}
											}
										}
									}
								}
							}
						}
					}
				}
			}
		}
	}
}
MOTION
Frames: 8
Frame Time: 0.03333333
8.251522 82.414886 -0.864868 0.000000 0.000000 0.000000 7.676531 -12.552616 -1.351712 -36.453649 4.807907 16.357922 48.715757 8.234061 -1.540440 -17.311775 5.627850 -10.322199 -3.075516 -2.348363 -2.459410 0.000000 0.000000 0.000000 7.676531 -12.552616 -1.351712 -21.976491 -7.372866 -16.761826 48.170257 -4.999424 -2.788793 -19.137493 -4.333047 14.495188 -14.272391 -2.388009 5.487247 0.000000 0.000000 0.000000 7.676531 -12.552616 -1.351712 12.199739 3.457272 -0.867333 8.547018 6.722059 -1.512190 0.000000 0.000000 0.000000 0.000000 0.000000 0.000000 -3.408236 6.901168 -0.063846 -1.053642 -3.761029 2.184397 -5.982004 4.507764 3.913931 0.000000 0.000000 0.000000 -3.408236 6.901168 -0.063846 -1.721884 -5.625957 -0.861950 0.000000 0.000000 0.000000 -9.809320 -3.483231 -61.749657 -12.683620 -28.217822 -4.423329 0.000000 0.000000 0.000000 -3.408236 6.901168 -0.063846 5.552876 -18.831829 2.973356 0.000000 0.000000 0.000000 39.568266 52.456587 11.456145 15.406275 28.844353 12.492167 0.000000 0.000000 0.000000 
8.510062 83.691368 -0.862411 0.000000 0.000000 0.000000 7.714057 -12.794455 -1.819455 -35.569088 5.502382 16.363953 46.465271 8.180191 -1.165428 -16.359264 5.581893 -9.896434 -3.075518 -2.348393 -2.459423 0.000000 0.000000 0.000000 7.714057 -12.794455 -1.819455 -21.235167 -7.825841 -15.522658 43.357945 -4.405028 -2.528452 -19.287512 -2.720687 14.908165 -8.843850 -2.898039 4.936615 0.000000 0.000000 0.000000 7.714057 -12.794455 -1.819455 12.058588 3.416275 -0.627923 8.235419 6.693142 -1.358527 0.000000 0.000000 0.000000 0.000000 0.000000 0.000000 -3.710611 6.857831 0.094729 -1.458328 -3.264164 1.331757 -5.486256 4.125539 4.660446 0.000000 0.000000 0.000000 -3.710611 6.857831 0.094729 -1.716041 -4.454584 -0.893411 0.000000 0.000000 0.000000 -9.717397 -3.541830 -62.272276 -11.923623 -27.096122 -3.494372 0.000000 0.000000 0.000000 -3.710611 6.857831 0.094729 5.098993 -17.776585 2.830944 0.000000 0.000000 0.000000 31.146831 51.316885 16.165630 17.702669 22.785043 11.882992 0.000000 0.000000 0.000000 
8.787903 84.824791 -0.953976 0.000000 0.000000 0.000000 7.738849 -13.050063 -2.294899 -34.685060 5.615058 16.474042 44.502046 8.565547 -1.101316 -15.427992 5.461360 -9.675703 -3.075493 -2.348384 -2.459420 0.000000 0.000000 0.000000 7.738849 -13.050063 -2.294899 -20.697469 -8.331980 -14.419550 38.749118 -4.057495 -2.538424 -18.913738 -1.229297 15.340260 -4.406074 -3.051692 6.171522 0.000000 0.000000 0.000000 7.738849 -13.050063 -2.294899 11.911543 3.393338 -0.353948 7.915920 6.670847 -1.209775 0.000000 0.000000 0.000000 0.000000 0.000000 0.000000 -4.021072 6.836051 0.250615 -1.840855 -2.854065 0.319122 -4.930054 3.603731 5.350208 0.000000 0.000000 0.000000 -4.021072 6.836051 0.250615 -1.693603 -3.827967 -1.241114 0.000000 0.000000 0.000000 -9.593850 -3.482804 -62.534999 -11.037053 -26.271935 -2.727124 0.000000 0.000000 0.000000 -4.021072 6.836051 0.250615 4.610796 -16.271285 2.746254 0.000000 0.000000 0.000000 24.194381 47.069152 21.401068 20.960196 21.627929 10.737958 0.000000 0.000000 0.000000 
9.014230 85.707779 -0.983196 0.000000 0.000000 0.000000 7.712495 -13.117780 -2.756265 -33.993548 5.766411 16.653367 42.947359 8.622574 -1.153257 -14.725080 5.338554 -9.313602 -3.075503 -2.348384 -2.459409 0.000000 0.000000 0.000000 7.712495 -13.117780 -2.756265 -20.459191 -8.999809 -13.082770 34.869079 -2.057025 -2.807389 -18.034884 -1.710572 14.845186 -2.094435 -3.284902 5.374507 0.000000 0.000000 0.000000 7.712495 -13.117780 -2.756265 11.766009 3.371508 -0.087485 7.597626 6.639436 -1.064227 0.000000 0.000000 0.000000 0.000000 0.000000 0.000000 -4.329987 6.793162 0.400625 -2.097905 -2.467596 -0.485375 -4.703822 3.176679 5.961099 0.000000 0.000000 0.000000 -4.329987 6.793162 0.400625 -1.684022 -3.655044 -1.369009 0.000000 0.000000 0.000000 -9.364241 -3.313598 -62.863278 -10.281042 -25.321784 -1.958507 0.000000 0.000000 0.000000 -4.329987 6.793162 0.400625 4.022899 -14.699896 2.630176 0.000000 0.000000 0.000000 18.984058 43.625477 27.206242 21.850424 20.601140 9.208944 0.000000 0.000000 0.000000 
9.110766 86.458916 -0.950405 0.000000 0.000000 0.000000 7.303695 -12.947432 -3.163946 -33.041867 6.223415 16.787336 41.489192 8.214885 -1.210577 -14.130248 5.204360 -8.803007 -3.075504 -2.348381 -2.459417 0.000000 0.000000 0.000000 7.303695 -12.947432 -3.163946 -19.935442 -8.927499 -11.814472 31.957557 -0.628217 -3.240051 -16.818473 -2.764741 14.603388 -1.716993 -3.079052 6.618598 0.000000 0.000000 0.000000 7.303695 -12.947432 -3.163946 11.643337 3.295977 0.162410 7.324741 6.494893 -0.931729 0.000000 0.000000 0.000000 0.000000 0.000000 0.000000 -4.590988 6.645016 0.513620 -2.350864 -2.140417 -1.082407 -4.321781 2.812426 6.500075 0.000000 0.000000 0.000000 -4.590988 6.645016 0.513620 -1.686312 -3.491241 -1.306876 0.000000 0.000000 0.000000 -9.128480 -3.161150 -63.281539 -9.621719 -24.665331 -1.360165 0.000000 0.000000 0.000000 -4.590988 6.645016 0.513620 3.436044 -12.677613 2.720370 0.000000 0.000000 0.000000 14.843980 39.461100 33.241212 22.083636 20.411423 7.131032 0.000000 0.000000 0.000000 
9.031330 87.189316 -0.864597 0.000000 0.000000 0.000000 6.511025 -12.408370 -3.569050 -31.715625 6.706090 16.765128 39.927298 7.451607 -1.166711 -13.472073 5.157153 -8.276559 -3.075503 -2.348390 -2.459408 0.000000 0.000000 0.000000 6.511025 -12.408370 -3.569050 -18.875436 -8.246900 -11.284478 29.831241 -1.778232 -3.321773 -15.724294 -2.247421 15.442802 -1.287557 -1.373562 5.867413 0.000000 0.000000 0.000000 6.511025 -12.408370 -3.569050 11.561146 3.164537 0.366173 7.121367 6.275668 -0.751660 0.000000 0.000000 0.000000 0.000000 0.000000 0.000000 -4.781019 6.413116 0.656969 -2.346673 -1.940746 -1.582421 -4.023492 2.365328 7.157913 0.000000 0.000000 0.000000 -4.781019 6.413116 0.656969 -1.683978 -3.311990 -1.311699 0.000000 0.000000 0.000000 -9.066529 -3.203672 -63.661844 -8.896726 -23.916150 -0.825332 0.000000 0.000000 0.000000 -4.781019 6.413116 0.656969 2.823411 -10.771067 2.883930 0.000000 0.000000 0.000000 11.686285 34.989908 39.226313 20.903452 20.431818 5.441416 0.000000 0.000000 0.000000 
8.825913 87.802773 -0.716293 0.000000 0.000000 0.000000 5.828753 -11.705354 -3.708258 -30.446094 6.973206 16.373096 38.478301 6.811326 -0.912620 -12.833797 5.240938 -8.019239 -3.075546 -2.348399 -2.459420 0.000000 0.000000 0.000000 5.828753 -11.705354 -3.708258 -17.780459 -7.061597 -10.800636 28.581756 -2.969023 -3.831167 -16.051686 -3.032470 17.503564 -1.386923 -1.056268 5.607929 0.000000 0.000000 0.000000 5.828753 -11.705354 -3.708258 11.456228 3.021426 0.515724 6.871403 6.046714 -0.607234 0.000000 0.000000 0.000000 0.000000 0.000000 0.000000 -5.017911 6.177902 0.762653 -2.262845 -1.908073 -2.185223 -3.777330 1.709236 7.965336 0.000000 0.000000 0.000000 -5.017911 6.177902 0.762653 -1.665084 -3.105135 -1.529662 0.000000 0.000000 0.000000 -9.143976 -3.384155 -63.951184 -8.306452 -23.428123 -0.465726 0.000000 0.000000 0.000000 -5.017911 6.177902 0.762653 2.183743 -8.911537 3.004669 0.000000 0.000000 0.000000 9.669404 30.271566 44.918664 18.140948 20.668651 4.430788 0.000000 0.000000 0.000000 
8.448577 88.252556 -0.501133 0.000000 0.000000 0.000000 5.007342 -11.242134 -3.698591 -28.959838 7.185726 15.969063 37.309242 6.362771 -0.524461 -12.391921 5.478648 -8.148131 -3.075528 -2.348356 -2.459413 0.000000 0.000000 0.000000 5.007342 -11.242134 -3.698591 -16.862079 -6.100026 -9.978104 27.990697 -3.320812 -4.522103 -16.088260 -4.278285 18.223230 -1.494473 -0.985248 5.533828 0.000000 0.000000 0.000000 5.007342 -11.242134 -3.698591 11.370463 2.926051 0.612487 6.662422 5.930125 -0.510392 0.000000 0.000000 0.000000 0.000000 0.000000 0.000000 -5.216860 6.061061 0.844169 -2.198535 -1.983299 -2.895914 -3.342760 0.921943 8.784424 0.000000 0.000000 0.000000 -5.216860 6.061061 0.844169 -1.626237 -2.900657 -1.982237 0.000000 0.000000 0.000000 -9.221894 -3.555626 -64.215615 -7.940967 -23.082252 -0.206265 0.000000 0.000000 0.000000 -5.216860 6.061061 0.844169 1.514008 -7.244174 3.121623 0.000000 0.000000 0.000000 8.638244 25.595263 50.012421 15.308638 21.394447 3.395858 0.000000 0.000000 0.000000 
